<?xml version="1.0" encoding="utf-8"?>
<svg viewBox="0 0 500 500" xmlns="http://www.w3.org/2000/svg">
  <g transform="matrix(0.083843, 0, 0, -0.083843, -0.723103, 502.78006)" fill="#000000" stroke="none" style="">
    <path d="M2680 5966 c-1264 -210 -1986 -1505 -1551 -2782 138 -406 442 -809 845 -1117 93 -72 158 -140 184 -193 l41 -81 -78 -67 c-119 -101 -151 -266 -76 -386 16 -26 13 -55 -12 -118 -41 -104 -42 -168 -1 -253 29 -62 29 -74 -3 -158 -75 -198 58 -411 256 -411 132 0 143 161 12 195 -84 22 -111 66 -86 139 l20 56 554 5 554 6 32 48 c65 99 16 131 -207 134 -916 12 -997 25 -953 151 l20 56 554 5 554 6 33 49 c80 123 43 132 -572 144 -559 11 -600 17 -600 90 0 118 -9 116 597 116 l557 0 23 52 c20 43 19 62 -7 100 l-31 48 -479 0 c-449 0 -480 2 -480 36 0 98 -104 242 -267 371 -900 713 -1173 1758 -691 2651 831 1542 3162 1073 3361 -677 89 -786 -200 -1408 -925 -1994 -233 -188 -350 -511 -206 -568 95 -38 114 -50 137 -85 29 -47 -4 -95 -94 -138 -123 -60 -128 -161 -10 -192 142 -36 141 -178 -1 -214 -123 -31 -117 -134 11 -195 67 -32 97 -59 102 -91 14 -102 0 -104 -586 -104 -636 0 -611 8 -611 -194 0 -180 19 -243 94 -318 l67 -68 232 0 232 0 77 78 c60 59 78 93 78 145 1 154 5 157 204 157 332 0 493 195 365 442 -27 53 -27 63 0 103 40 57 40 220 0 297 -27 53 -27 63 0 103 69 98 42 266 -59 364 -125 121 -101 186 130 358 1420 1054 1251 3173 -303 3790 -270 107 -747 157 -1037 109z m520 -5629 c0 -108 -45 -137 -212 -137 -162 0 -188 19 -188 139 l0 61 200 0 200 0 0 -63z" style="fill: rgb(255, 255, 255);"/>
    <path d="M2200 4582 c-335 -69 -504 -468 -317 -750 114 -172 254 -232 540 -232 l177 0 5 -735 5 -734 54 -19 c133 -47 136 -32 136 771 l0 717 200 0 200 0 5 -735 5 -734 54 -19 c133 -47 136 -32 136 771 l0 717 176 0 c237 0 353 37 457 144 404 419 -68 1055 -578 781 -184 -99 -255 -254 -255 -553 l0 -182 -197 0 -198 0 -10 211 c-20 420 -256 651 -595 581z m256 -236 c114 -85 134 -134 141 -355 l7 -206 -187 10 c-221 11 -302 44 -371 148 -171 257 164 586 410 403z m1401 -1 c291 -217 137 -530 -272 -551 l-185 -9 0 193 c0 350 231 536 457 367z" style="fill: rgb(255, 255, 255);"/>
  </g>
</svg>