<?xml version="1.0" encoding="utf-8"?>
<svg viewBox="0 0 500 500" xmlns="http://www.w3.org/2000/svg">
  <defs>
    <radialGradient gradientUnits="userSpaceOnUse" cx="250.588" cy="173.914" r="153.643" id="gradient-0" gradientTransform="matrix(0.971089, 0, 0, 1.023091, 8.4194, 0.978435)">
      <stop offset="0" style="stop-color: rgba(255, 247, 101, 1)"/>
      <stop offset="1" style="stop-color: rgba(254, 241, 0, 1)"/>
    </radialGradient>
  </defs>
  <ellipse style="stroke: rgba(255, 255, 255, 0); fill-opacity: 0.79; paint-order: stroke markers; fill: url(#gradient-0);" cx="251.762" cy="178.909" rx="154.23" ry="174.794"/>
  <path stroke-width="0" d="M 204.724 359.672 C 226.086 357.619 300.162 358.097 315.77 361.435 C 321.698 362.703 322.345 364.592 324.289 366.429 C 325.832 367.887 326.615 369.13 327.227 371.129 C 327.984 373.601 328.525 377.568 327.814 380.53 C 327.091 383.548 324.87 387.125 322.82 389.05 C 321.051 390.71 317.15 390.272 316.651 391.987 C 316.064 394.005 320.555 397.783 321.351 401.094 C 322.176 404.52 322.176 408.831 321.351 412.257 C 320.555 415.569 316.313 419.25 316.651 421.364 C 316.91 422.98 319.564 423.098 320.764 424.596 C 322.177 426.361 323.705 429.181 324.289 431.646 C 324.866 434.081 325.002 436.731 324.289 439.285 C 323.499 442.115 321.434 445.776 319.295 447.804 C 317.341 449.657 316.129 450.49 312.244 451.329 C 304.94 452.907 281.28 451.48 274.054 452.504 C 270.376 453.026 267.495 453.459 267.297 454.561 C 267.095 455.69 271.613 457.328 273.173 459.261 C 274.762 461.231 276.105 463.79 276.698 466.312 C 277.301 468.876 277.443 471.845 276.698 474.537 C 275.896 477.434 273.843 481.029 271.704 483.057 C 269.75 484.91 268.135 485.812 264.653 486.582 C 259.105 487.808 245.269 488.527 239.389 487.169 C 235.351 486.237 232.987 484.81 230.87 482.175 C 228.479 479.201 229.953 472.509 226.463 469.543 C 222.133 465.863 211.209 466.696 204.136 464.255 C 197.222 461.868 188.136 458.476 184.454 455.148 C 181.997 452.928 181.493 450.439 180.928 448.098 C 180.407 445.935 180.244 443.937 180.928 441.635 C 181.765 438.82 184.284 434.545 186.51 432.528 C 188.401 430.814 189.019 430.415 192.973 429.59 C 201.905 427.726 246.964 427.041 247.321 426.359 C 247.648 425.733 214.592 427.541 203.549 425.477 C 195.491 423.971 188.568 421.147 185.041 418.133 C 182.607 416.052 182.08 413.423 181.516 411.082 C 180.995 408.92 180.831 406.922 181.516 404.619 C 182.353 401.805 184.901 397.47 187.098 395.512 C 188.922 393.887 193.395 393.969 193.267 392.869 C 193.104 391.464 184.563 389.915 182.103 387.581 C 180.048 385.63 179.142 382.871 178.578 380.53 C 178.057 378.368 177.893 376.369 178.578 374.067 C 179.415 371.253 180.854 367.263 184.16 364.96 C 188.511 361.929 193.703 360.732 204.724 359.672 Z M 211.481 390.225 C 206.359 390.617 202.853 391.392 202.08 391.987 C 201.827 392.182 201.859 392.457 202.08 392.575 C 202.637 392.872 204.806 392.118 207.955 391.987 C 214.216 391.728 229.626 391.247 240.858 391.987 C 252.52 392.756 272.721 398.653 276.698 396.688 C 278.462 395.816 278.237 393.075 277.286 391.987 C 275.966 390.479 272.296 390.611 266.71 390.225 C 255.948 389.479 221.808 389.433 211.481 390.225 Z" style="stroke-width: 2px; stroke: rgba(0, 0, 0, 0); fill: rgb(40, 40, 40);"/>
  <g transform="matrix(0.083843, 0, 0, -0.083843, 0.451985, 501.017426)" fill="#000000" stroke="none" style="">
    <path d="M 2680 5966 C 1416 5756 694 4461 1129 3184 C 1267 2778 1571 2375 1974 2067 C 2067 1995 2132 1927 2158 1874 L 2199 1793 L 2121 1726 C 2002 1625 1970 1460 2045 1340 C 2061 1314 2058 1285 2033 1222 C 1992 1118 1991 1054 2032 969 C 2061 907 2061 895 2029 811 C 1954 613 2409.353 337.107 2607.353 336.932 C 2739.822 336.815 2842.625 380.259 2430.146 552.954 C 2350.05 586.488 2214.031 611.946 2239.031 684.946 L 2231 790 L 2785 795 L 3339 801 L 3371 849 C 3436 948 3387 980 3164 983 C 2248 995 2167 1008 2211 1134 L 2231 1190 L 2785 1195 L 3339 1201 L 3372 1250 C 3452 1373 3415 1382 2800 1394 C 2241 1405 2200 1411 2200 1484 C 2200 1602 2191 1600 2797 1600 L 3739.422 1607.008 L 3650.299 1616.962 C 3670.299 1659.962 3641.268 1714 3615.268 1752 L 3689.383 1856.061 L 2860 1800 C 2411 1800 2344.962 1886.092 2344.962 1920.092 C 2344.962 2018.092 2276 2078 2113 2207 C 1213 2920 940 3965 1422 4858 C 2253 6400 4584 5931 4783 4181 C 4872 3395 4583 2773 3858 2187 C 3625 1999 3508 1676 3652 1619 C 3747 1581 3766 1569 3789 1534 C 3818 1487 3785 1439 3695 1396 C 3572 1336 3567 1235 3685 1204 C 3827 1168 3826 1026 3684 990 C 3561 959 3567 856 3695 795 C 3762 763 3792 736 3797 704 C 3811 602 3797 600 3211 600 C 2575 600 2656.062 657.053 2656.062 455.053 C 2656.062 275.053 2619 163 2694 88 L 2761 20 L 2993 20 L 3225 20 L 3302 98 C 3362 157 3380 191 3380 243 C 3381 397 3385 400 3584 400 C 3916 400 4077 595 3949 842 C 3922 895 3922 905 3949 945 C 3989 1002 3989 1165 3949 1242 C 3922 1295 3922 1305 3949 1345 C 4018 1443 3991 1611 3890 1709 C 3765 1830 3789 1895 4020 2067 C 5440 3121 5271 5240 3717 5857 C 3447 5964 2970 6014 2680 5966 Z M 3200 337 C 3200 229 3155 200 2988 200 C 2826 200 2778.977 183.962 2778.977 303.962 L 2800 400 L 3000 400 L 3200 400 L 3200 337 Z"/>
    <path d="M2200 4582 c-335 -69 -504 -468 -317 -750 114 -172 254 -232 540 -232 l177 0 5 -735 5 -734 54 -19 c133 -47 136 -32 136 771 l0 717 200 0 200 0 5 -735 5 -734 54 -19 c133 -47 136 -32 136 771 l0 717 176 0 c237 0 353 37 457 144 404 419 -68 1055 -578 781 -184 -99 -255 -254 -255 -553 l0 -182 -197 0 -198 0 -10 211 c-20 420 -256 651 -595 581z m256 -236 c114 -85 134 -134 141 -355 l7 -206 -187 10 c-221 11 -302 44 -371 148 -171 257 164 586 410 403z m1401 -1 c291 -217 137 -530 -272 -551 l-185 -9 0 193 c0 350 231 536 457 367z" style="fill: rgb(255, 190, 69);"/>
  </g>
</svg>