<?xml version="1.0" standalone="no"?>
<!DOCTYPE svg PUBLIC "-//W3C//DTD SVG 20010904//EN"
 "http://www.w3.org/TR/2001/REC-SVG-20010904/DTD/svg10.dtd">
<svg version="1.0" xmlns="http://www.w3.org/2000/svg"
 width="300.000000pt" height="300.000000pt" viewBox="0 0 300.000000 300.000000"
 preserveAspectRatio="xMidYMid meet">
<metadata>
Created by potrace 1.10, written by Peter Selinger 2001-2011
</metadata>
<g transform="translate(0.000000,300.000000) scale(0.050000,-0.050000)"
fill="#ffffff" stroke="none">
<path d="M2953 5887 c-7 -8 -13 -317 -13 -688 0 -747 4 -768 135 -783 46 -5
55 -16 55 -66 l0 -60 -165 -10 c-187 -11 -238 -44 -258 -162 -22 -138 61 -198
273 -198 207 0 274 -35 222 -118 -13 -21 -72 -28 -228 -30 -255 -2 -314 -37
-314 -182 0 -150 57 -180 337 -180 243 0 283 -9 283 -67 0 -73 -40 -83 -321
-83 -354 0 -359 -4 -359 -285 0 -453 -52 -612 -277 -845 -521 -539 -552 -1306
-71 -1780 723 -715 1910 -124 1840 916 -23 346 -127 565 -405 856 -222 232
-246 283 -265 566 -18 265 -52 312 -224 312 -225 0 -237 -26 -237 -520 l-1
-409 110 -102 c126 -116 137 -165 60 -269 -70 -95 -64 -132 60 -380 121 -242
130 -272 71 -241 -68 37 -118 23 -175 -49 -68 -86 -91 -87 -146 -10 -50 70
-118 93 -180 60 -73 -39 -67 -13 49 218 120 239 136 325 74 404 -62 79 -68
127 -23 183 81 104 18 182 -74 90 -77 -77 -84 -204 -18 -301 66 -97 70 -73
-61 -342 -171 -350 -157 -631 22 -427 80 92 93 93 160 5 73 -96 149 -96 225 0
67 83 94 87 138 19 41 -63 95 -93 137 -77 85 33 46 219 -112 534 l-99 198 51
74 c95 137 51 316 -99 405 l-70 41 0 377 c0 418 0 419 136 419 95 0 124 -52
124 -223 0 -279 68 -420 319 -667 628 -616 374 -1670 -444 -1843 -619 -131
-1173 357 -1175 1034 0 334 101 555 399 869 267 281 281 319 281 752 0 360
-21 338 315 338 315 0 365 25 365 180 0 149 -56 178 -357 184 l-253 6 0 60 0
60 220 11 c251 12 269 18 318 101 91 155 -12 258 -259 258 -198 0 -244 21
-219 99 11 36 29 41 152 41 313 0 421 299 133 368 l-56 13 1 655 c1 359 1 665
1 679 -1 26 -84 35 -108 12z"/>
</g>
</svg>
