<?xml version="1.0" standalone="no"?>
<!DOCTYPE svg PUBLIC "-//W3C//DTD SVG 20010904//EN"
 "http://www.w3.org/TR/2001/REC-SVG-20010904/DTD/svg10.dtd">
<svg version="1.0" xmlns="http://www.w3.org/2000/svg"
 width="800.000000pt" height="800.000000pt" viewBox="0 0 800.000000 800.000000"
 preserveAspectRatio="xMidYMid meet">
<metadata>
Created by potrace 1.14, written by Peter Selinger 2001-2017
</metadata>
<g transform="translate(0.000000,800.000000) scale(0.100000,-0.100000)"
fill="#000000" stroke="none">
<path d="M3940 7964 c-30 -19 -62 -37 -70 -41 -8 -4 -79 -44 -157 -90 -78 -46
-147 -83 -153 -83 -5 0 -10 -4 -10 -8 0 -5 -24 -21 -52 -36 -29 -15 -70 -37
-90 -49 -105 -63 -293 -172 -303 -176 -5 -2 -21 -12 -35 -21 -14 -9 -45 -28
-70 -42 -25 -14 -83 -48 -130 -75 -47 -28 -188 -110 -315 -183 -261 -151 -373
-217 -395 -230 -8 -5 -52 -31 -98 -57 -46 -27 -91 -53 -100 -58 -9 -6 -62 -36
-117 -68 -55 -32 -107 -62 -115 -67 -37 -23 -611 -356 -660 -383 -30 -16 -62
-35 -70 -41 -8 -7 -28 -18 -45 -26 -16 -8 -36 -21 -43 -27 -7 -7 -18 -13 -24
-13 -6 0 -19 -6 -27 -14 -9 -7 -41 -26 -71 -42 -30 -16 -57 -32 -60 -35 -3 -3
-30 -20 -61 -36 -32 -17 -69 -39 -83 -48 l-26 -17 0 -2004 c0 -1236 4 -2004 9
-2004 10 0 358 -199 403 -231 15 -10 34 -19 42 -19 7 0 16 -7 20 -15 3 -8 10
-15 16 -15 5 0 130 -70 278 -156 147 -86 287 -168 312 -182 25 -14 89 -51 143
-83 54 -33 100 -59 103 -59 3 0 26 -14 52 -32 26 -18 49 -32 52 -32 3 1 16 -6
30 -14 55 -34 65 -39 73 -40 4 -1 19 -10 34 -22 14 -11 32 -20 39 -20 8 0 14
-3 14 -8 0 -4 21 -19 47 -32 26 -14 70 -39 98 -56 27 -17 77 -46 110 -64 33
-18 76 -43 95 -55 19 -12 37 -22 40 -23 3 0 34 -19 70 -41 36 -23 76 -47 90
-54 41 -20 324 -185 337 -197 7 -5 14 -10 17 -10 4 0 39 -20 216 -123 19 -11
48 -27 63 -36 16 -9 36 -21 45 -26 79 -48 206 -121 262 -151 19 -11 37 -22 40
-25 3 -3 37 -23 75 -44 39 -21 72 -41 75 -44 3 -3 19 -13 35 -21 17 -8 42 -23
57 -33 15 -10 36 -19 45 -19 14 -1 309 165 468 263 17 10 37 22 45 26 16 7
135 77 160 94 8 5 23 12 33 15 9 4 17 10 17 15 0 5 5 9 11 9 10 0 459 258 469
269 3 3 23 15 45 27 22 11 90 50 151 86 61 35 117 68 125 71 8 4 30 17 49 28
19 12 55 33 80 47 25 14 57 33 72 43 14 11 31 19 37 19 6 0 11 5 11 10 0 6 5
10 10 10 6 0 90 47 188 104 222 130 217 127 397 231 83 48 156 92 163 97 6 6
12 7 12 2 0 -5 4 -4 8 2 4 5 88 57 187 115 99 57 187 109 197 114 9 6 29 17
45 26 15 8 73 42 128 74 55 32 132 76 170 98 39 21 91 53 118 69 l47 30 0
2002 0 2002 -35 14 c-19 8 -35 17 -35 21 0 4 -8 9 -17 13 -10 3 -31 14 -48 23
-16 10 -52 32 -80 47 -27 16 -58 36 -67 44 -10 8 -18 12 -18 8 0 -4 -12 1 -27
12 -24 16 -195 117 -318 188 -224 128 -444 256 -460 269 -10 8 -25 15 -32 15
-7 0 -13 4 -13 8 0 4 -12 13 -27 19 -28 12 -41 19 -198 113 -44 26 -87 50 -95
54 -8 3 -28 15 -45 26 -16 11 -37 23 -45 27 -8 3 -17 9 -20 12 -3 3 -21 14
-40 24 -19 9 -48 26 -65 37 -16 11 -37 23 -45 27 -8 4 -91 52 -185 107 -93 54
-183 106 -198 115 -16 9 -36 21 -45 26 -9 6 -62 36 -117 68 -55 32 -107 62
-115 67 -17 11 -284 166 -340 197 -19 11 -91 53 -160 93 -68 40 -138 81 -155
90 -16 9 -65 38 -108 64 -43 25 -80 46 -81 46 -2 0 -43 24 -92 53 -49 30 -96
56 -104 59 -9 3 -40 -9 -70 -28z m136 -1016 c34 -21 67 -38 73 -38 6 0 11 -4
11 -9 0 -5 8 -11 18 -14 17 -6 44 -22 167 -96 37 -23 69 -41 72 -41 3 0 34
-18 69 -40 35 -22 66 -40 70 -40 3 0 18 -9 33 -19 15 -11 54 -34 86 -52 33
-18 89 -50 125 -72 36 -22 83 -49 105 -61 41 -23 139 -80 165 -96 61 -39 585
-340 592 -340 4 0 8 -4 8 -10 0 -5 5 -10 11 -10 6 0 49 -23 97 -51 96 -57 135
-80 202 -117 25 -13 52 -30 60 -36 8 -7 26 -17 40 -24 14 -6 43 -23 65 -37 22
-14 47 -28 55 -32 8 -4 31 -16 50 -28 19 -12 99 -59 178 -105 78 -45 142 -87
143 -93 0 -7 2 -678 2 -1491 1 -973 -1 -1483 -8 -1492 -11 -14 -201 -124 -215
-124 -4 0 -10 -3 -12 -8 -3 -8 -213 -132 -223 -132 -3 0 -11 -5 -18 -10 -14
-13 -385 -229 -407 -238 -8 -3 -31 -17 -50 -30 -19 -13 -44 -28 -55 -33 -11
-5 -34 -18 -50 -28 -66 -39 -559 -327 -635 -369 -25 -14 -61 -36 -80 -49 -19
-12 -40 -23 -47 -23 -7 0 -13 -4 -13 -9 0 -5 -14 -14 -31 -21 -17 -7 -57 -30
-90 -51 -33 -21 -61 -39 -64 -39 -5 0 -25 -11 -82 -47 -16 -10 -30 -18 -33
-18 -3 0 -16 -8 -30 -17 -14 -9 -37 -22 -52 -29 -16 -7 -28 -16 -28 -21 0 -4
-5 -8 -11 -8 -6 0 -48 -22 -95 -50 -47 -27 -87 -50 -90 -50 -3 0 -10 -5 -17
-10 -36 -31 -128 -78 -132 -67 -8 26 -10 97 -2 97 4 0 5 4 2 10 -3 5 -6 62 -5
127 0 65 0 161 -1 213 0 52 0 100 0 105 0 6 0 33 0 60 1 76 1 179 0 295 0 131
-1 121 1 145 1 11 1 72 1 135 -1 113 -1 216 0 325 0 75 0 68 -1 178 -1 54 0
101 3 103 10 10 -9 57 -23 60 -14 3 -84 16 -155 29 -16 3 -67 12 -112 21 -76
15 -90 15 -180 0 -54 -10 -111 -19 -128 -22 -16 -2 -54 -9 -84 -14 -29 -5 -57
-7 -62 -4 -5 3 -9 1 -9 -3 0 -5 -10 -9 -22 -10 -22 -1 -43 -4 -118 -18 -35 -6
-62 -10 -122 -20 -18 -3 -58 -10 -88 -15 -55 -10 -99 -17 -155 -25 -16 -2 -41
-6 -55 -9 -13 -3 -40 -8 -60 -11 -20 -3 -47 -7 -60 -10 -13 -3 -42 -7 -65 -10
-22 -3 -47 -8 -55 -10 -8 -2 -35 -7 -60 -10 -25 -3 -67 -10 -95 -15 -27 -6
-132 -24 -231 -40 -199 -33 -229 -38 -229 -40 0 -1 -18 -3 -40 -5 -22 -2 -51
-6 -65 -9 -13 -3 -42 -8 -64 -12 -22 -3 -44 -8 -48 -10 -5 -3 -8 0 -8 6 0 9
55 80 152 195 9 11 72 88 139 170 146 180 172 212 269 329 41 50 84 103 95
117 24 32 275 340 290 355 5 6 21 26 35 44 14 18 30 38 35 44 6 6 49 58 95
116 93 114 111 136 152 184 15 17 44 78 64 136 84 236 93 264 91 265 -86 53
-160 95 -167 95 -6 0 -10 4 -10 8 0 4 -12 13 -27 19 -37 15 -87 46 -91 56 -2
4 -8 7 -13 7 -7 0 -269 150 -369 210 -15 10 -99 58 -155 90 -17 9 -87 50 -155
90 -69 40 -145 84 -170 98 -25 14 -69 40 -97 58 -29 19 -53 30 -53 26 0 -4 -4
-2 -8 3 -4 6 -20 18 -37 27 -16 10 -79 46 -138 80 l-108 62 23 18 c13 10 26
18 31 18 4 0 26 12 50 27 23 15 44 27 47 28 3 0 28 14 55 31 28 17 100 59 160
94 61 35 138 80 173 102 35 21 65 38 67 38 3 0 249 143 275 160 8 6 24 14 35
20 11 5 38 21 60 35 22 14 47 28 55 32 8 4 43 24 78 45 34 21 67 38 72 38 6 0
10 4 10 9 0 5 9 13 21 16 24 8 121 66 130 78 3 5 8 7 10 6 3 -3 256 141 544
310 44 26 87 50 95 54 18 8 53 30 60 37 3 3 16 11 30 18 14 6 59 32 100 57 41
25 83 48 93 52 9 3 17 9 17 14 0 5 5 9 11 9 6 0 56 27 111 60 56 33 104 60
108 60 4 0 13 6 19 14 17 20 40 15 107 -26z"/>
<path d="M5559 5328 c-84 -11 -165 -53 -231 -121 -31 -33 -57 -62 -56 -66 1
-3 -9 -28 -22 -56 -18 -38 -24 -70 -26 -134 -2 -84 7 -124 43 -201 31 -66 152
-169 218 -187 66 -17 93 -20 142 -19 62 3 173 33 173 47 0 5 6 9 13 9 17 0
117 90 117 106 0 8 3 14 8 14 10 0 52 94 58 132 10 56 10 142 0 173 -63 210
-235 329 -437 303z"/>
</g>
</svg>
